<svg xmlns="http://www.w3.org/2000/svg" aria-hidden="true" style="width:0;height:0;position:absolute;overflow:hidden"><defs><symbol id="icon-facebook" viewBox="0 0 32 32"><path d="M19.52 4.64h.96v3.6h-1.2c-.48 0-.96 0-1.2.24s-.24.48-.24 1.04v1.28h2.64v3.04h-2.64v13.2h-4.08V13.76H11.6v-3.04h2.16V9.68c0-1.76.24-3.04.72-3.6.72-1.04 2.16-1.52 4.32-1.52.24.08.48.08.72.08z"/></symbol><symbol id="icon-instagram" viewBox="0 0 32 32"><path d="M28.718 10.756a9.264 9.264 0 0 0-.596-3.145 6.547 6.547 0 0 0-3.743-3.737 9.42 9.42 0 0 0-3.108-.596c-1.368-.061-1.801-.078-5.273-.078s-3.916 0-5.274.078a9.413 9.413 0 0 0-3.106.596 6.541 6.541 0 0 0-3.743 3.737 9.288 9.288 0 0 0-.596 3.101c-.061 1.367-.08 1.8-.08 5.265s0 3.909.08 5.265a9.335 9.335 0 0 0 .596 3.104 6.548 6.548 0 0 0 3.744 3.735 9.37 9.37 0 0 0 3.106.639c1.369.061 1.803.08 5.274.08s3.916 0 5.274-.08a9.362 9.362 0 0 0 3.108-.595 6.555 6.555 0 0 0 3.743-3.737 9.35 9.35 0 0 0 .596-3.104c.061-1.365.08-1.798.08-5.265-.003-3.466-.003-3.906-.082-5.264zM15.99 22.531c-3.631 0-6.572-2.936-6.572-6.561s2.941-6.561 6.572-6.561c3.628 0 6.572 2.936 6.572 6.561s-2.944 6.561-6.572 6.561zm6.834-11.835a1.53 1.53 0 1 1 0-3.06 1.53 1.53 0 1 1 0 3.06z"/><path d="M15.992 19.976a4.004 4.004 0 1 0 0-8.009 4.004 4.004 0 0 0 0 8.009z"/></symbol><symbol id="icon-menu" viewBox="0 0 32 32"><path stroke-linejoin="round" stroke-linecap="square" stroke-width="1.333" d="M4 16h24M4 8h24M4 24h24"/></symbol><symbol id="icon-x-mob-modal" viewBox="0 0 32 32"><path stroke-linecap="round" stroke-linejoin="round" stroke-width="2.08" d="M24 8 8 24M8 8l16 16"/></symbol><symbol id="icon-youtube" viewBox="0 0 32 32"><path d="M24.24 6c-1.36-.08-4.16-.16-8.4-.16h-.56c-4.08 0-6.8.08-8.16.24-1.84.16-3.12.64-3.84 1.28-.64.56-1.12 1.6-1.28 2.96-.08.88-.16 2.72-.16 5.52v.4c0 2.64.08 4.48.24 5.36.24 1.28.64 2.24 1.44 2.8.8.64 2.16 1.04 4.08 1.2 1.36.08 4.16.16 8.4.16h.56c4.08 0 6.8-.08 8.16-.24 1.84-.16 3.12-.64 3.84-1.28.64-.56 1.12-1.6 1.28-2.96.08-.88.16-2.72.16-5.52v-.4c0-2.64-.08-4.48-.24-5.36-.24-1.28-.64-2.24-1.44-2.8-.8-.64-2.16-1.04-4.08-1.2zm-3.12 9.84-8.8 5.28V10.56l8.8 5.28z"/></symbol><symbol id="icon-logo" viewBox="0 0 123 32"><path d="M81.944.602a2.393 2.393 0 0 1 2.376 2.376v23.35L67.021.316H61.16v.285a2.373 2.373 0 0 1 2.376 2.376v26.044a2.373 2.373 0 0 1-2.376 2.376v.285h5.386v-.285a2.373 2.373 0 0 1-2.376-2.376V1.203l20.15 30.828h.634V2.978A2.372 2.372 0 0 1 87.33.602V.317h-5.386v.285zM21.386.348v6.939h-.349c0-3.675-2.947-6.653-6.59-6.685h-6.59a2.373 2.373 0 0 0-2.376 2.376V.602v14.574h4.594a3.428 3.428 0 0 0 3.422-3.422h.285v7.287h-.285v-.158a3.107 3.107 0 0 0-2.978-3.105H5.45v13.275a2.373 2.373 0 0 0 2.376 2.376h6.844c3.707-.032 6.717-3.01 6.717-6.717v-.634h.317v7.509H.033v-.222a2.372 2.372 0 0 0 2.376-2.376V2.977A2.373 2.373 0 0 0 .033.601H.001V.316h21.101l.285.032zM118.601 29.212 105.896 0h-.634L92.747 29.085c-.507 1.299-2.059 2.313-3.358 2.313v.285h5.386v-.285c-1.299 0-2.186-.444-1.362-2.313l-.982 2.313 4.467-10.424h14.511l3.422 8.047c.919 1.901-.76 2.376-2.059 2.376h.032v.285h9.061v-.285c-1.014 0-2.44-1.014-3.263-2.186zm-21.449-8.84 7.034-16.349 6.97 16.349H97.152zM40.65.317c-.285 0-.602 0-.887.032H28.23v.285a2.373 2.373 0 0 1 2.376 2.376V.602v28.451a2.372 2.372 0 0 1-2.376 2.376v.222h12.42c8.998 0 16.285-3.549 16.285-15.651C56.935 5.006 49.648.317 40.65.317zm-.571 31.113h-3.992a2.373 2.373 0 0 1-2.376-2.376V2.979A2.372 2.372 0 0 1 36.087.603h3.992c7.509 0 13.592 2.756 13.592 15.398-.032 12.673-6.115 15.43-13.592 15.43z"/></symbol><symbol id="icon-carousel" viewBox="0 0 256 32"><path fill="#fff" style="fill:var(--color1,#fff)" d="M25.6 13.631c0 7.069-5.731 12.8-12.8 12.8S0 20.7 0 13.631C0 6.562 5.731.831 12.8.831s12.8 5.731 12.8 12.8z"/><path fill="#fff" style="fill:var(--color1,#fff)" opacity=".4" d="M102.4 13.631c0 7.069-5.731 12.8-12.8 12.8s-12.8-5.731-12.8-12.8c0-7.069 5.731-12.8 12.8-12.8s12.8 5.731 12.8 12.8zM179.2 13.631c0 7.069-5.731 12.8-12.8 12.8s-12.8-5.731-12.8-12.8c0-7.069 5.731-12.8 12.8-12.8s12.8 5.731 12.8 12.8zM256 13.631c0 7.069-5.731 12.8-12.8 12.8s-12.8-5.731-12.8-12.8c0-7.069 5.731-12.8 12.8-12.8s12.8 5.731 12.8 12.8z"/></symbol><symbol id="icon-carousel-services" viewBox="0 0 256 32"><path fill="#fff" style="fill:var(--accent)" d="M25.6 13.631c0 7.069-5.731 12.8-12.8 12.8S0 20.7 0 13.631C0 6.562 5.731.831 12.8.831s12.8 5.731 12.8 12.8z"/><path fill="#fff" style="fill:var(--accent)" opacity=".4" d="M102.4 13.631c0 7.069-5.731 12.8-12.8 12.8s-12.8-5.731-12.8-12.8c0-7.069 5.731-12.8 12.8-12.8s12.8 5.731 12.8 12.8zM179.2 13.631c0 7.069-5.731 12.8-12.8 12.8s-12.8-5.731-12.8-12.8c0-7.069 5.731-12.8 12.8-12.8s12.8 5.731 12.8 12.8zM256 13.631c0 7.069-5.731 12.8-12.8 12.8s-12.8-5.731-12.8-12.8c0-7.069 5.731-12.8 12.8-12.8s12.8 5.731 12.8 12.8z"/></symbol><symbol id="icon-arrow-2" viewBox="0 0 164 32"><path d="M161.414 17.414a2 2 0 0 0 0-2.828L148.686 1.858a2 2 0 1 0-2.828 2.828L157.172 16l-11.314 11.314a2 2 0 1 0 2.828 2.828l12.728-12.728zM0 18h160v-4H0v4z"/></symbol><symbol id="icon-arrow-1" viewBox="0 0 164 32"><path d="M2.586 14.586a2 2 0 0 0 0 2.828l12.728 12.728a2 2 0 1 0 2.828-2.828L6.828 16 18.142 4.686a2 2 0 1 0-2.828-2.828L2.586 14.586zM164 14H4v4h160v-4z"/></symbol></defs></svg>